<?xml version="1.0" standalone="no"?>
<!DOCTYPE svg PUBLIC "-//W3C//DTD SVG 20010904//EN"
 "http://www.w3.org/TR/2001/REC-SVG-20010904/DTD/svg10.dtd">
<svg version="1.0" xmlns="http://www.w3.org/2000/svg"
 width="500.000000pt" height="500.000000pt" viewBox="0 0 500.000000 500.000000"
 preserveAspectRatio="xMidYMid meet">
<metadata>
Created by potrace 1.14, written by Peter Selinger 2001-2017
</metadata>
<g transform="translate(0.000000,500.000000) scale(0.100000,-0.100000)"
fill="#000000" stroke="none">
<path d="M2449 4703 c-11 -12 -14 -61 -15 -205 -1 -104 -3 -190 -5 -192 -2 -2
-49 -6 -104 -10 -133 -7 -171 -13 -291 -41 -255 -60 -484 -168 -699 -330 -86
-64 -262 -235 -310 -300 -17 -22 -33 -42 -36 -45 -4 -3 -37 -50 -74 -105 -151
-227 -265 -530 -291 -775 -4 -36 -8 -72 -10 -80 -1 -8 -3 -32 -3 -52 l-1 -38
-148 0 c-132 0 -151 -2 -165 -18 -22 -24 -21 -45 1 -65 16 -14 43 -17 165 -17
l147 0 1 -57 c0 -32 2 -65 3 -73 2 -8 6 -40 10 -70 56 -478 324 -938 721
-1236 230 -174 517 -300 770 -340 22 -3 43 -8 46 -9 6 -5 142 -16 229 -20 36
-2 68 -4 73 -4 4 -1 7 -70 7 -155 0 -164 6 -186 50 -186 44 0 50 22 50 191 l0
159 38 1 c20 0 48 2 62 4 14 3 41 7 60 10 220 33 462 121 663 241 240 144 488
391 629 629 119 199 205 428 234 619 3 22 7 43 9 46 5 8 17 128 20 195 2 33 3
67 4 76 1 14 25 16 195 17 207 0 236 6 236 46 0 49 -21 55 -210 54 -96 0 -187
1 -201 1 -25 1 -26 3 -33 83 -4 45 -11 100 -16 122 -5 23 -11 52 -14 66 -66
349 -272 711 -556 976 -265 247 -664 435 -995 469 -33 4 -73 8 -90 10 -16 2
-40 4 -51 4 -22 1 -22 3 -22 196 0 161 -3 197 -15 210 -20 20 -51 19 -68 -2z
m-15 -696 c1 -104 -1 -193 -4 -197 -3 -5 -34 -11 -68 -14 -362 -33 -631 -158
-869 -403 -223 -229 -359 -528 -377 -833 l-2 -25 -203 -3 -202 -2 6 72 c32
411 207 789 500 1084 145 146 281 247 452 333 126 63 357 138 479 156 22 3 60
9 85 13 24 4 80 7 123 7 l79 0 1 -188z m286 173 c129 -24 178 -36 297 -76 482
-162 873 -543 1058 -1029 24 -62 71 -227 81 -280 15 -84 24 -156 24 -187 0
-35 -3 -38 -27 -39 -16 0 -105 -1 -200 -2 l-172 -2 -6 50 c-15 117 -33 192
-70 295 -98 277 -291 519 -541 682 -87 56 -278 142 -344 154 -14 3 -43 10 -65
16 -22 6 -80 16 -130 22 l-90 12 -2 201 -1 202 66 -5 c37 -2 91 -8 122 -14z
m-289 -468 c0 -10 2 -46 3 -80 1 -50 6 -67 21 -78 20 -15 55 -10 67 10 8 12 8
13 11 101 1 33 6 59 12 58 6 0 34 -4 63 -7 350 -37 713 -267 907 -576 85 -135
162 -339 180 -475 4 -27 8 -60 10 -72 3 -22 0 -23 -59 -23 -87 0 -124 -35 -87
-82 16 -19 27 -22 86 -20 l68 2 -6 -93 c-7 -96 -9 -111 -33 -217 -107 -473
-530 -865 -1017 -943 l-87 -14 0 104 c0 118 -8 143 -48 143 -47 0 -52 -14 -52
-138 l0 -115 -97 6 c-440 25 -831 276 -1042 668 -75 139 -131 332 -144 502
l-5 57 119 0 c106 0 121 2 139 20 24 24 25 38 3 62 -14 15 -32 18 -133 18 -64
0 -119 2 -122 5 -7 8 10 143 28 215 45 179 122 343 227 480 198 258 487 428
821 484 110 18 166 17 167 -2z m1753 -1336 c-3 -50 -7 -102 -9 -115 -3 -13 -7
-45 -10 -70 -11 -75 -55 -246 -87 -334 -42 -117 -138 -297 -216 -407 -119
-168 -324 -358 -507 -470 -169 -104 -405 -195 -585 -225 -19 -3 -59 -10 -89
-15 -30 -6 -67 -10 -83 -10 l-28 0 0 200 c0 110 3 200 8 201 436 48 812 293
1030 672 101 177 165 392 173 587 1 30 4 60 6 66 3 8 64 12 204 12 l199 0 -6
-92z m-3070 13 c0 -48 22 -200 37 -245 5 -17 11 -40 14 -52 9 -48 59 -173 101
-252 63 -119 145 -229 239 -320 98 -96 120 -114 215 -176 209 -137 441 -210
683 -216 l67 -2 0 -202 0 -203 -97 5 c-54 3 -123 9 -153 14 -30 5 -73 12 -95
16 -176 26 -445 132 -615 242 -325 212 -568 515 -696 868 -31 88 -66 217 -78
294 -3 19 -8 49 -11 65 -3 17 -8 69 -11 118 l-6 87 204 0 203 0 -1 -41z"/>
<path d="M2236 3234 c-22 -21 -20 -47 5 -70 12 -10 34 -36 49 -56 l28 -38 -37
-38 c-20 -20 -40 -45 -46 -55 -8 -15 -25 -18 -105 -19 -145 -2 -168 -19 -172
-132 -4 -105 -25 -89 -111 83 -74 149 -94 174 -124 155 -42 -27 -40 -37 45
-209 84 -170 84 -170 157 -192 27 -8 30 -13 31 -51 1 -37 -1 -42 -22 -43 -13
-1 -33 -3 -44 -4 -11 -1 -37 -3 -58 -4 -37 -1 -44 -7 -125 -108 -96 -119 -108
-156 -56 -175 25 -9 50 13 125 107 l67 85 59 0 59 0 -2 -65 c-2 -66 -5 -71
-53 -79 -47 -9 -57 -22 -132 -174 -43 -86 -79 -165 -81 -175 -1 -9 6 -26 17
-37 36 -36 60 -12 136 142 63 127 85 158 112 158 5 0 13 -15 16 -34 11 -57 72
-168 118 -215 204 -207 507 -208 706 -3 51 53 111 161 126 225 6 26 10 28 34
22 15 -4 27 -7 27 -8 0 -1 33 -68 73 -149 68 -137 75 -148 101 -148 30 0 51
16 51 40 0 8 -36 88 -79 176 -71 145 -82 162 -111 173 -18 6 -41 11 -51 11
-25 0 -31 14 -33 81 l-1 60 60 -3 59 -3 73 -90 c41 -49 83 -93 93 -97 22 -8
60 21 60 46 0 13 -159 218 -179 230 -5 3 -41 8 -81 11 -85 6 -87 7 -84 37 1
13 3 30 3 40 1 11 14 18 41 23 22 4 49 14 60 23 32 28 173 320 166 347 -7 28
-53 42 -72 23 -7 -7 -45 -77 -84 -155 -64 -130 -80 -151 -106 -140 -3 1 -7 33
-8 70 -2 59 -6 72 -29 95 -25 25 -33 27 -129 29 -86 2 -105 5 -115 20 -7 10
-29 35 -49 55 l-37 37 18 28 c10 15 31 40 47 56 16 15 28 38 28 52 0 27 -31
49 -58 41 -26 -9 -85 -69 -107 -110 -17 -31 -24 -36 -56 -36 -32 0 -40 5 -64
43 -34 52 -94 107 -117 107 -9 0 -24 -7 -32 -16z"/>
</g>
</svg>
